<svg width="24" height="24" viewBox="0 0 24 24" fill="none" xmlns="http://www.w3.org/2000/svg">
<path d="M11.714 1C5.79683 1 1 5.79683 1 11.714C1 17.6312 5.79683 22.4281 11.714 22.4281C17.6312 22.4281 22.4281 17.6312 22.4281 11.714C22.4281 5.79683 17.6312 1 11.714 1Z" stroke="#2C2C2C" stroke-width="2" stroke-linecap="round" stroke-linejoin="round"/>
<path d="M3.43311 18.5128C3.43311 18.5128 5.82127 15.4639 11.714 15.4639C17.6067 15.4639 19.995 18.5128 19.995 18.5128" stroke="#2C2C2C" stroke-width="2" stroke-linecap="round" stroke-linejoin="round"/>
<path d="M11.714 11.7141C13.4892 11.7141 14.9282 10.2751 14.9282 8.49986C14.9282 6.72471 13.4892 5.28564 11.714 5.28564C9.93876 5.28564 8.49976 6.72471 8.49976 8.49986C8.49976 10.2751 9.93876 11.7141 11.714 11.7141Z" stroke="#2C2C2C" stroke-width="2" stroke-linecap="round" stroke-linejoin="round"/>
</svg>
